<svg width="239" height="369" viewBox="0 0 239 369" fill="none" xmlns="http://www.w3.org/2000/svg">
<rect width="239" height="369" fill="white"/>
<path d="M171.9 130.384C171.024 129.508 170.534 128.322 170.539 127.085V111.92C170.539 109.572 168.636 107.669 166.288 107.669H152.465C150.116 107.669 148.214 109.572 148.214 111.92V125.738C148.214 128.086 150.116 129.989 152.465 129.989H167.62C168.856 129.989 170.043 130.48 170.919 131.351C171.795 132.227 172.286 133.413 172.281 134.65V222.051C172.281 224.4 174.183 226.302 176.532 226.302H190.35C192.698 226.302 194.601 224.4 194.601 222.051V136.017C194.601 133.669 192.698 131.766 190.35 131.766H175.2C173.958 131.766 172.772 131.261 171.9 130.379V130.384Z" fill="#00FFAF"/>
<path d="M68.0819 179.51C68.9581 178.639 70.1397 178.148 71.3763 178.153H108.881C111.219 178.153 113.117 176.256 113.117 173.918V158.722C113.117 157.496 113.608 156.319 114.474 155.453C115.35 154.582 116.531 154.096 117.768 154.096H132.948C135.286 154.096 137.184 152.199 137.184 149.86V135.987C137.184 133.649 135.286 131.751 132.948 131.751H117.798C115.225 131.751 113.137 129.664 113.132 127.085V111.9C113.132 109.562 111.234 107.664 108.896 107.664H48.7111C46.333 107.664 44.4054 109.592 44.4054 111.97V125.683C44.4054 128.061 46.333 129.989 48.7111 129.989H110.218C112.801 129.989 114.894 132.082 114.894 134.665V151.182C114.894 152.414 114.404 153.6 113.532 154.472C112.661 155.343 111.475 155.828 110.243 155.828H72.7231C70.385 155.828 68.4875 157.726 68.4875 160.064V175.259C68.4875 176.491 68.0018 177.673 67.1307 178.544C66.2595 179.415 65.0779 179.9 63.8463 179.9H48.636C46.2979 179.9 44.4004 181.798 44.4004 184.136V197.99C44.4004 200.328 46.2979 202.225 48.636 202.225H63.8463C65.0779 202.225 66.2595 202.711 67.1307 203.582C68.0018 204.453 68.4875 205.635 68.4875 206.866V222.072C68.4875 224.41 70.385 226.307 72.7231 226.307H132.913C135.291 226.307 137.219 224.38 137.219 222.002V208.293C137.219 205.915 135.291 203.988 132.913 203.988H71.4013C70.1647 203.988 68.9831 203.502 68.107 202.631C67.2358 201.765 66.7501 200.588 66.7501 199.361V182.809C66.7401 181.578 67.2208 180.391 68.0919 179.515L68.0819 179.51Z" fill="#00FFAF"/>
<path d="M28.0455 84V77.5227H29.75C32.1742 77.5227 34.0587 76.7462 35.4034 75.1932C36.7481 73.6402 37.714 71.1307 38.3011 67.6648C38.9072 64.1989 39.3144 59.6061 39.5227 53.8864L40.5455 25.8182H76V84H68.9545V32.0682H47.25L46.3409 55.25C46.1136 61.3485 45.5549 66.5379 44.6648 70.8182C43.7746 75.0985 42.2121 78.3655 39.9773 80.6193C37.7424 82.8731 34.4848 84 30.2045 84H28.0455ZM106.895 84.9091C102.955 84.9091 99.4991 83.9716 96.5256 82.0966C93.571 80.2216 91.2604 77.5985 89.5938 74.2273C87.946 70.8561 87.1222 66.9167 87.1222 62.4091C87.1222 57.8636 87.946 53.8958 89.5938 50.5057C91.2604 47.1155 93.571 44.483 96.5256 42.608C99.4991 40.733 102.955 39.7955 106.895 39.7955C110.834 39.7955 114.281 40.733 117.236 42.608C120.209 44.483 122.52 47.1155 124.168 50.5057C125.834 53.8958 126.668 57.8636 126.668 62.4091C126.668 66.9167 125.834 70.8561 124.168 74.2273C122.52 77.5985 120.209 80.2216 117.236 82.0966C114.281 83.9716 110.834 84.9091 106.895 84.9091ZM106.895 78.8864C109.887 78.8864 112.349 78.1193 114.281 76.5852C116.213 75.0511 117.643 73.0341 118.571 70.5341C119.499 68.0341 119.963 65.3258 119.963 62.4091C119.963 59.4924 119.499 56.7746 118.571 54.2557C117.643 51.7367 116.213 49.7008 114.281 48.1477C112.349 46.5947 109.887 45.8182 106.895 45.8182C103.902 45.8182 101.44 46.5947 99.5085 48.1477C97.5767 49.7008 96.1468 51.7367 95.2188 54.2557C94.2907 56.7746 93.8267 59.4924 93.8267 62.4091C93.8267 65.3258 94.2907 68.0341 95.2188 70.5341C96.1468 73.0341 97.5767 75.0511 99.5085 76.5852C101.44 78.1193 103.902 78.8864 106.895 78.8864ZM163.834 40.3636V46.6136H143.607V84H136.902V40.3636H163.834ZM189.082 84.9091C185.143 84.9091 181.687 83.9716 178.713 82.0966C175.759 80.2216 173.448 77.5985 171.781 74.2273C170.134 70.8561 169.31 66.9167 169.31 62.4091C169.31 57.8636 170.134 53.8958 171.781 50.5057C173.448 47.1155 175.759 44.483 178.713 42.608C181.687 40.733 185.143 39.7955 189.082 39.7955C193.022 39.7955 196.469 40.733 199.423 42.608C202.397 44.483 204.707 47.1155 206.355 50.5057C208.022 53.8958 208.855 57.8636 208.855 62.4091C208.855 66.9167 208.022 70.8561 206.355 74.2273C204.707 77.5985 202.397 80.2216 199.423 82.0966C196.469 83.9716 193.022 84.9091 189.082 84.9091ZM189.082 78.8864C192.075 78.8864 194.537 78.1193 196.469 76.5852C198.401 75.0511 199.83 73.0341 200.759 70.5341C201.687 68.0341 202.151 65.3258 202.151 62.4091C202.151 59.4924 201.687 56.7746 200.759 54.2557C199.83 51.7367 198.401 49.7008 196.469 48.1477C194.537 46.5947 192.075 45.8182 189.082 45.8182C186.09 45.8182 183.628 46.5947 181.696 48.1477C179.764 49.7008 178.334 51.7367 177.406 54.2557C176.478 56.7746 176.014 59.4924 176.014 62.4091C176.014 65.3258 176.478 68.0341 177.406 70.5341C178.334 73.0341 179.764 75.0511 181.696 76.5852C183.628 78.1193 186.09 78.8864 189.082 78.8864Z" fill="black"/>
</svg>
